<svg xmlns="http://www.w3.org/2000/svg" viewBox="0 0 710.67 767.44"><g id="Calque_2" data-name="Calque 2"><g id="Calque_1-2" data-name="Calque 1"><path d="M257,264.61c1.62,3.58,3.25,7.17,4.86,10.75a6.94,6.94,0,0,1,.79,3.85l-7.29-4.35v3c-7-1-13.89-1.76-20.72-2.91-16.79-2.82-33.48-6.11-49.69-11.49-11.6-3.84-23.36-6.25-35.69-3.78-3.66.74-5.51,2.22-5.12,6.2.77,8,1.34,16.13,2,24.2.26,3.29,2.1,4.44,5.45,3.8-.87-2.35-1.7-4.61-2.52-6.87,5.32,3.34,5.63,3.49,9.41,3.77l1.07-1-6-3.37c.41-.47.81-.94,1.22-1.4l8,4.26c-.1-1.47-.17-2.52-.23-3.41l4.86,2.75-3.94-6.5.43-.47c.92.65,1.83,1.32,2.76,2,1.93,1.34,3.47,1.79,6,.31,2.89-1.7,6.56-2.29,10-2.84,14.57-2.38,29.15-1.3,43.66.59,9.1,1.18,16.2,5.9,21.46,13.56,4.47,6.5,9.29,12.76,13.53,19.46-8-8.63-14.23-19.08-25.53-24.26l13.93,13.23-.6.76-2.91-2.18-.36.31,9.12,13.16-1.2,1.08c-2-2.27-3.78-4.71-5.94-6.78-5-4.74-9.77-9.7-15.2-13.85-9.12-7-20-8.58-31.13-8.34a161.56,161.56,0,0,0-20.5,2.11c2.52.48,4.14,4,7.52,1.68.69-.48,2.24.38,3.41.5,6.95.69,14.09.57,20.82,2.18,10.68,2.57,21,6.68,28.54,15.19,7,7.84,13.37,16.15,20,24.26a3.25,3.25,0,0,1,.78,2L229.5,310.63c-.28,12.66-3.38,23.11-15.6,28.54,1.32-.24,2.65-.46,4-.75s2.65-.73,4-1c7.48-1.25,14.95-2.58,22.47-3.58,1.64-.22,3.46.8,5.2,1.26l-.22,1-8.49,1.24-.52,1,10,7.53-.73,1.26c-3.12-1.82-6.74-3.14-9.22-5.6-2.74-2.7-5.44-2.89-8.76-2.43-.9,3.57,6.3,2.73,3.29,7.29l-6.35-7.5-1.19.92c.14,1.12.29,2.23.56,4.35l-4.21-4-.65.56c1.85,2.76,3.69,5.52,5.74,8.57l-7.6-7.67-1.28,1,2,7.93-.63.31-4.56-8c-.47,4.43-.86,8.15-1.25,11.88l-1.29-.07v-9.1l-.82-.08c-.37,1.26-.74,2.52-1.3,4.4-.78-1.76-1.26-2.85-2.18-4.91-1.13,5-2,8.86-2.92,12.77l-.82-.18V346.75l-1-.13q-2.33,4.62-4.66,9.25l-.81-.1,1-6-.51-.48a35.66,35.66,0,0,0-3.32,4.08c-1,1.66-1.61,3.55-3,5.16l2-7.82-3,3.7v-5.15l-.65-.36-4,6.13-1.29-.53,2.25-6.63-.42-.6L181,354.62l-.75-.32,3.21-7.56-1.08-1.11L180,349c-4-1.37-3.69,4.36-7.23,4.62l3.45-7.41-1.12-.83-3,5-1.13-.85c.07-.76.15-1.52.3-3l-7.08,5.52-.56-.45q2.28-3.44,4.55-6.88l-.35-.6-11.27,6.09,6.44-9.41L152,347l-.61-.42,6.35-7.57-.88-.5-6.22,4-.68-.6,4.42-5.76-.65-.75L147,341c.9-2.19,1.72-4.18,2.78-6.78-2.55,2.09-4.55,3.72-6.56,5.35L142,338.34l6.22-8c-.89-.77-.9-.8-4.58,1.8-1.82,1.27-3.56,2.66-5.33,4l-.84-1,9.15-7.27-.27-.62-10.61,5.12-.47-.57,8.54-7.14c-4.26-3.89-6.79,1.39-11.37,2.11l6.9-6.27c-2.71-2.6-5.41-5.27-10.29-2.82l.25-1.38,2.37-1.17c-3.22-4.3-9.25-5.7-11.57-12.13l8.12,3.08v-3.29l4.07,2.37.17-3.14,3.88,1.09-6.3-9.28.67-.55,5.63,6,.83-.61c-.52-1.31-1-2.61-1.66-4.19l8.07,3.76c-1.47-11.54-2.95-23.23-4.53-35.6-3.67,1.53-7.74,3.16-11.72,5-.6.27-1,1.4-1.16,2.2-2,10.66-4.13,21.3-6,32-4.69,27.28.64,53.76,5.89,80.38,3.62,18.29,16.27,28.07,30.66,36.88.95.58,2,1,3.19,1.67-4-.43-8.57-2.74-15.42-8.19-4.63-3.68-9-7.66-13.86-11.78a277.18,277.18,0,0,0,20.71,54.33c5.9,11.84,14.82,21.17,25.57,28.8.58.41,1.12.87,1.68,1.3l-.57.94L155.88,473c4.94,20.69,14.12,37.91,35,46.51l-.58.88C187.17,519,184,517.64,181,516s-5.89-3.5-9.52-4.69c2.54,3.89,5.13,7.74,7.6,11.67,8,12.71,18.51,23.28,29.44,33.29,23.09,21.16,46.6,41.87,70,62.65a33.15,33.15,0,0,0,22.32,8.35c12.35.11,24.7.11,37.06.23,9,.08,16.93-3.18,23.84-8.61,24.14-19,48.41-37.78,72-57.35a236.23,236.23,0,0,0,35.37-36,129,129,0,0,0,21.37-39.27c7.76-23.56,14.25-47.53,21.3-71.32,2.83-9.52.11-18.81-1.11-28.16-.25-1.92-.63-3.83-1.12-6.77-8.54,33.62-22.82,62.82-48.57,85.42,2.76-3.07,5.6-6.07,8.27-9.21a130.14,130.14,0,0,0,24.43-44.71,264.82,264.82,0,0,0,9.92-39.08c2.35-14.62,2.86-29.54,3.79-44.36.15-2.3-1.45-4.9-2.74-7.07s-3.18-3.7-4.69-5.62-3.1-.81-4.11.24a80.16,80.16,0,0,0-5.39,6.89l6.22,5.16-.85.92a54.11,54.11,0,0,1-5-4.18c-2.1-2.21-3.29-1.29-4.49.78l6.79,5.11-.51.83-8.44-3.82c-.16.37-.32.74-.47,1.11,1.1,1.74,4.82,1.37,3.92,4.72l3.08,4.11-.43.55-9.8-7.24-.72.95,6.29,5.25-1.13,1.45L478,334c1.11,3.66,5.5,5.8,3.65,10.14l-10.8-5.83c2.07,3.89,3.58,6.75,5.1,9.6l-.75.61-8.6-7.15-.72.82,2.17,2.95H466l2.57,4.95-10.3-5.88-.47.72,4.68,6.5-.84.72-7.25-6.37-.58.3,2.86,6.45-.42.46L451,347.38l-.54.28,3.05,5.64-.91.81-5.31-7.76-1.63,1.3,3.11,6.6L439.37,347l-.6.57,2,3.19c-.6,1-1.2,2.09-1.78,3.12-1.51-2.24-3-4.44-4.46-6.63l-.73.36q2.06,5.1,4.12,10.19l-.72.46-6.89-10c.08,1.87.17,3.75.26,5.62l-.92.24-2.91-6.91-.7.21v10.77l-.59,0q-.8-5.7-1.61-11.39l-1.38-.09-1,10.06-.68.13q-.87-5.53-1.72-11.08l-.72-.1-3.92,8.79-1.09-.2v-8.93l-1.27-.51-4.41,5.82-.52-.22q1.14-3.72,2.27-7.44l-.48-.26-4.21,4.59,1.46-4.56-.78-.46-4.48,5.79-.63-.28,4.08-9-13.2,3.79-.34-.75,6.93-3.14c-4-1-6.4,0-8.92,2.3-2.77,2.55-6.22,4.35-9.37,6.48l-.78-1.17,10-8.53-8.2-1.79c5.87-4,11.53-.46,17-.27,5.64.2,11.25,1.5,16.74,2.3A19.83,19.83,0,0,1,404,326.87c-1.76-5-2.7-10.23-4.18-16.1L367.45,336l-.67-.53c6-7.35,11.74-15,18.11-22a78.08,78.08,0,0,1,22.09-17c1.44-.33,4.19,2.23,4-1.41,3.87-.51,7.51-1,11.17-1.46s7.36-.79,11-1.24c.79-.1,1.53-.57,2.31-.65s1.41.49,1.94.29a10.4,10.4,0,0,0,4.07-2.6c-11.78-1.91-23.11-2.22-34.54,1.72-10.21,3.52-17,11-24.33,18-2.41,2.31-4.9,4.53-7.35,6.8l-1.14-1,16.62-21.47c-8.24,6.71-16.28,13.66-23.1,22.16a42.32,42.32,0,0,1,2.83-5.28c4.61-6.36,9.34-12.63,14.05-18.91,6.55-8.72,16-11.32,26.13-11.48,12.33-.2,24.68.42,37,.71a2.89,2.89,0,0,1,1.62.8c-15.24.22-30.61-1.88-45.89,2.82,11.47-.64,22.5-1.41,33.55-1.83,5.19-.2,10.4.27,15.6.42a4.59,4.59,0,0,0,1.11-.1c5.44-1.12,7.31,0,9.05,5.68l3.21-1.54-1.38-.8c0-2.06.52-3.74-.09-4.7-2.63-4.12-5.49-8.11-8.48-12a74.61,74.61,0,0,0-6.05-6.54c-2.47-2.5-5-3.11-8.71-1.85-13.07,4.43-26.3,8.4-39.55,12.25a65.29,65.29,0,0,1-14.41,2l3-1.51-.54-.24-14.34,4.11,1.19-4.17-4.09,4.79-1-.49c.24-1.31.47-2.62.7-3.93l-4.8,5.32c-.09-1.66-.13-2.63-.2-4l-3.28,4.94-1.2-.74c4.28-8.7,7-18.25,14.89-25L372.38,263l.39.24,8.05-8.43c-.2,1.91-.3,2.8-.4,3.74.4-.07.72,0,.83-.16,1.09-1.33,1.9-3,3.25-3.95a10.53,10.53,0,0,1,4.83-1.49c2.79-.27,5.65.12,8.41-.28C410,250.89,422.26,249,435.35,247c-5.54-5.84-10.13-12-16-16.57-13-10.07-26.72-19.21-40-28.91a676.88,676.88,0,0,1-66.43-54.7c-7.15-6.76-14-13.83-21.68-21.41a63.3,63.3,0,0,0,2.61,6.78c10.29,19.47,22.23,37.93,36.8,54.4,10,11.27,20.62,22.22,32.39,31.52,14.25,11.27,31.33,17.84,48.63,23.4a4.66,4.66,0,0,1,2.33,1.35c-2.51-.61-5-1.17-7.54-1.83s-5.29-1.46-7.92-2.21c-45.06-12.83-82.06-37.95-112.15-73.58-17.5-20.72-32.62-43.07-42.11-68.54-4.8-12.87-7.28-26.64-10.19-40.14a153.39,153.39,0,0,1-2.72-22.66c-.6-9.49.93-18.82,3.28-27.94l7.47,20,1.5-.43C242,17.18,240.39,8.82,238.76.4c3.56-1.42,4.12,1.22,4.8,4.11,2.62,11,4.42,22.33,8.27,32.9a276,276,0,0,0,31.64,62.16,118.59,118.59,0,0,1,8.8,15.25c-.86-.95-1.77-1.85-2.57-2.85-12.05-15-24.47-29.63-36-45-6.52-8.71-11.81-18.41-17-28-2-3.68-2.38-8.28-3.41-12.18-1.94,4.3,5.14,34.8,10.45,43.11l-5.81-22.57c34.4,56.54,81.46,101.06,131.25,143.09l.76-.72c-2.35-2.26-4.69-4.54-7.07-6.78a576.87,576.87,0,0,1-56.66-60.74c-14.39-18-27.93-36.81-38.51-57.41a369.34,369.34,0,0,1-16.76-37.08c-2.5-6.57-2.93-14.06-3.49-21.19-.34-4.47,2.31-6,6.73-6.41s6.48,1.38,8.73,5.24c7.47,12.79,15.57,25.22,23.6,37.67,6,9.32,11.71,18.92,18.55,27.61,20.26,25.74,43.69,48.6,67.08,71.43,8.66,8.45,18.66,15.63,26.63,24.65,13.63,15.39,26.11,31.79,39.13,47.72q18.22,22.31,36.58,44.5c1.43,1.74,2.93,3.41,4.39,5.11l.93-.84c-2.87-3.38-5.84-6.66-8.57-10.14-12.55-16-24.91-32.09-37.58-48Q418,185.49,401.76,166.41c-3.91-4.63-8.7-8.51-12.84-13-9.84-10.58-19.76-21.11-29.25-32-14.59-16.75-28.89-33.74-43.24-50.7-14.75-17.43-29.59-34.79-44-52.52C268.28,13.1,265.51,6.84,261.7.4c2.4-.11,3.59-.2,4.78-.2,14.11,0,28.23,0,42.34-.05,4.07,0,8.07-.34,10.79,3.74-.6-1-1.19-2.07-2-3.51C319,.31,320.22.2,321.4.2c26.6,0,53.2,0,79.79-.06a5.77,5.77,0,0,1,5,2.4,460.72,460.72,0,0,1,53.26,78.07,78.89,78.89,0,0,0,5.78,9.1c-5.07-16.56-13.74-31.41-22.63-46S423.83,14.87,414.34.41c.51,0,1.42-.2,2.33-.21,9.74,0,19.48-.1,29.22.08a6,6,0,0,1,4.29,2C460.73,16.8,471,31.5,481.55,46.05c2.76,3.82,6.23,7.11,9,10.91C503.79,75.05,515,94.36,523,115.29c6.06,15.81,11,32.06,16.84,48,4,10.74,8.71,21.19,13.1,31.77a114.76,114.76,0,0,0,7,14.72c-2.93-8.57-5.81-17.15-8.8-25.7-7.15-20.47-14.24-41-21.6-61.36-1.9-5.24-4.74-10.14-7.14-15.2a6.35,6.35,0,0,1-.84-3.57L535,126.05c.26-2,.62-4.72,1-7.46l1,0c.42,1.7.83,3.4,1.37,5.64.56-3,1-5.52,1.68-9l8.31,18.61c-2.82-43.08-31.56-98.93-72-121.52,13.23,15.17,21.44,33.1,29.21,51.27l-.79.5L453.46.2c10.15,0,19.7,0,29.25.06A3.53,3.53,0,0,1,485,1.78c18.69,25.87,38.23,51.16,52.91,79.72a386,386,0,0,1,32.25,85.92A560.94,560.94,0,0,1,585,269.89c.64,11.92-.42,23.93-.69,35.89a11.45,11.45,0,0,0,.81,5.31c.11-1.68.22-3.37.36-5.4.73,3.44,1.4,6.52,2.06,9.61l1.3-.14c0-4.1.14-8.21,0-12.3-.24-5.48-.89-10.95-1.08-16.43a663.76,663.76,0,0,0-10.16-92.61c-4-22.87-8.21-45.71-15.47-67.81-7.73-23.52-18.38-45.77-30.23-67.5A382.54,382.54,0,0,0,495.16,3c-.53-.67-1-1.39-1.76-2.48,1.26-.13,2.16-.31,3.07-.31,3.49,0,7,0,10.49,0,14,0,14.09-.12,24,9.83a142.2,142.2,0,0,1,29.46,43.36C568,70.45,574,88.18,580.69,105.62a20.87,20.87,0,0,0,2.4,4.88,213.7,213.7,0,0,0-20.44-57.83C553,34.73,541.32,17.92,530.5.57c5-1.28,8.3-.15,11.33,4.64C556.6,28.59,569.47,52.82,578.78,79a111.64,111.64,0,0,0,11.92,23.17,494,494,0,0,1,53,107.38,391.09,391.09,0,0,1,12.61,42.26c6,26.74,7,53.41-5.06,79.19-1.29,2.74-1.42,6.28-1.28,9.41.38,8.84,1.29,17.66,1.74,26.51.14,3,1.1,4.78,3.83,6.13,17.2,8.49,35.16,11.65,55.11,7.82-19.31,9.54-38.72,11.26-59.25,8.11-.59,5.3-1,10.36-1.73,15.36-3.26,21.09-6.41,42.24-14.08,62.31-2.07,5.4-5.35,10.32-7.86,15.57a22.33,22.33,0,0,0-1.89,6.41c-3.92,28.13-13.11,54.49-26.5,79.45a6.33,6.33,0,0,1-1.81,2c15.84-37.67,17.06-76.7,11.41-116.49-7.2,28.68-17.82,56.07-28,83.59,10.11-35.91,12.9-72.62,12.88-109.68,0-7.54-.07-15.07-7-21.16-.67,13.46-1.32,26.43-2,39.4l-1,.07c-.27-2.3-.55-4.6-.82-6.9-1.46-12-2.84-24-4.45-36a20.08,20.08,0,0,0-2.93-7.09c9.73,72.5-.69,141.66-32.15,207,4.57-3.49,17.43-33.35,24.13-55.26,6-19.71,9.21-40,11.49-60.4l1.1.14q-.87,14.88-1.73,29.77l1.24.09c4.35-18.76,1.58-38.35,6.86-57.07-.48,11.1-.4,22.25-1.6,33.27-1.58,14.5-3.66,29-6.43,43.29-6.86,35.5-20.72,68.28-42.1,97.35-10.58,14.4-15.94,30-17.75,47.18-.57,5.33,1.24,10.92,1.87,15.73-3.19-4.2-4.75-10-5.58-15.85s-.9-11.88-1.33-18.22c-11,8.64-20.94,18.65-33.93,24.51a22.45,22.45,0,0,1,2.05-1.74c10.83-7.4,16.93-18.59,22.88-29.64,13.85-25.74,21.18-53.21,20.15-82.65a13.88,13.88,0,0,0-1.2-5.76c-1,1.31-2.07,2.58-3,3.94a171.89,171.89,0,0,1-24.92,28.74c-1.76,1.65-2.16,3-1.41,5.51a134.06,134.06,0,0,1,4.07,19.2c-3.58-5.33-7.17-10.65-10.66-15.84-7.8,5.14-15.72,10.47-23.77,15.59-2.5,1.6-5.52,2.39-8,4a5.76,5.76,0,0,0-2.47,3.89c-.18,5.61.16,11.24.14,16.85,0,2.55.63,4.24,3.36,5,4.12,1.16,3.87,4.93,4.58,8.19,2.05,9.48,3.47,19.19,6.57,28.32,5.38,15.83,15.1,29.13,26.9,40.92,4,4,7.72,8.15,11.42,12.07l-5.48-2.57-20.45,26.09H461.69l-3.86-1.38c1.6-2.42,2.83-4.89,4.61-6.87,6.23-6.94,12.73-13.64,19-20.56,4.36-4.8,4.26-4.89,9-1.06A6.77,6.77,0,0,0,492,738a20.93,20.93,0,0,0-1.69-3.63c-3.5-4.67-7-9.32-10.71-13.86-1.83-2.25-4-4.25-6-6.37l.14.14-2.75-4.89-1.3-.17a88.7,88.7,0,0,1-19.28,29.24c-8.31,8.44-17.06,16.43-25.63,24.62-.78-2.93.17-6.2-1-7.3-2.37-2.28-.61-2.7.64-3.81,11.42-10.16,23-20.16,34.11-30.67,2.57-2.42,3.48-6.6,5.15-10l-1-.52c-.77,1.08-1.58,2.13-2.29,3.24a70.64,70.64,0,0,1-19,20.33,74.57,74.57,0,0,0-6,4.46c-10.76,9.22-23.48,14.93-36.42,20.18-5.53,2.25-6,2.34-5.62,8.39h-3c4.7-16.81,9.52-33.58,14-50.44,1.6-6,5.62-9.48,10.6-12.35,9.51-5.47,19.19-10.66,28.46-16.51,4.59-2.89,8.44-7,12.62-10.51l-.71-.91-3,1.83c-13.95,8.47-27.8,17.12-41.93,25.27-4.34,2.51-7.07,5.55-8.47,10.25-5.3,17.81-10.74,35.58-16.12,53.37h-7.49c1.26-3.38,2.8-6.68,3.75-10.14,4.32-15.73,8.5-31.5,12.65-47.28.67-2.51,1.41-4.56,4.26-5.55a163.86,163.86,0,0,0,47.46-26.39c4.34-3.39,5.18-6.81,4.49-11.78a172.13,172.13,0,0,1-1.54-19.39c-.15-6.07-.81-12.1-.79-18.21.09-21.18,2.45-42.08,6-62.9.88-5.16,1.5-10.37,2.25-15.55l-1.06-.54c-.87,1-1.72,2.08-2.59,3.11q-7,8.28-14,16.54c-20,23.53-40.73,46.27-64.37,66.19-12.21,10.28-24.19,21-38.69,28-16.65,8.08-32.89,8.29-48.08-3.76-4.79-3.79-9.57-7.6-14.43-11.31-2.33-1.78-4.85-3.32-7.28-5,2.71,6.88,6.36,12.86,9.21,19.2q11.61,25.92,22.59,52.11c1.46,3.48,3.42,5.15,7,5.45,25.86,2.17,51.6,2.17,77-3.94,3-.72,5-2.1,6.06-5.59,5-17.23,9.86-34.52,15.71-51.47,7.93-23,16-45.94,27.57-67.44.87-1.61,1.63-3.28,2.43-4.93a6.57,6.57,0,0,1-.62,4.09c-4.49,10.55-9.3,21-13.43,31.64-13.47,34.87-25.95,70-32.81,107-2.37,12.79-6.77,25.2-10.24,37.79H314.83L301,744.63a45.43,45.43,0,0,0,4.24,10.53c2.3,4.18,4.9,8.19,7.37,12.28h-9.74c-1.6-6.4-3.09-12.83-4.83-19.18-3-10.9-6.14-21.76-9.12-32.28l9.18,3.82c-1.64-3.85-2.79-6.55-3.93-9.25-5.92-14-11.72-28-17.79-42-3.39-7.76-7.58-15.17-10.67-23a18.72,18.72,0,0,0-5.88-8.26q-13.25-10.69-26.47-21.42c-1.08-.87-2.28-1.58-3.26-2.26,0,18.47.33,36.54-.21,54.59-.14,4.93,1.51,7.88,4.77,10.74,13.51,11.83,29,20.21,45.78,26.3,4,1.45,5.41,3.85,5.87,7.56.39,3.22.51,6.53,1.41,9.61,4.43,15,9.08,30,13.65,45H294.6q-1.78-5.15-3.58-10.29a5.83,5.83,0,0,0-.51,4.27,60,60,0,0,0,2.59,6H250.39a28.61,28.61,0,0,0-2.16-3c-2.62-2.82-5.45-5.45-8-8.37-3.94-4.58-7.46-9.54-11.58-14-6.42-6.85-13.18-13.38-19.8-20a9,9,0,0,0,1.45,5.65c5.64,7.77,11.16,15.65,17.29,23,4.92,5.9,10.65,11.12,16,16.65H230.16c-2.06-8.77-11.28-11.33-15.79-18,1.43,2.64,2.87,5.27,4.29,7.87-3.84,2-6.31-.64-9.35-2.09q5.55,6.12,11.11,12.25H194.2c1.08-1,2.17-2,3.7-3.45a32.13,32.13,0,0,0-1.76-2.84c-3.44-4.59-7-9.06-10.38-13.72-3.82-5.31-3.73-5.38-9.31-4.24,3.81-3.85,7.56-7.84,11.51-11.6,16-15.27,25.08-34.24,29.5-55.63,1.06-5.12,1.7-10.34,2.34-15.54.35-2.85,1.34-5.09,4.17-6.07,2.35-.81,2.68-2.46,2.59-4.68a350.81,350.81,0,0,0-12.11-77.13,19.7,19.7,0,0,0-6.42-9.8c-17.16-15.26-32.23-32.35-43.57-52.45a26.52,26.52,0,0,0-11.14-10.86H159c-3.56-9.33-6.87-18-10.18-26.65l-1.24,0c-.6,1.65-1.56,3.28-1.72,5-.81,8.78-1.62,17.57-2,26.38-.26,5.65,2.43,10.24,6.31,14.32,6.5,6.85,13.58,12.82,22.48,16.4-10.2-2.34-19.28-7-27.7-13.17l-1.11.32c1.51,10.55,3,21.1,4.66,32.45-1.6-2.71-3-4.84-4.17-7.06-5.25-9.62-10.24-19.39-15.76-28.85a119.64,119.64,0,0,0-11.76-16.19c2.64,11.66,8.84,21.55,15,31.54l-.45-2.34c13.5,23.5,30.4,43.61,57.41,53.8-15-.48-26.51-9-39-15.18,4.44,19.32,9.26,38.21,20.9,54.73-.75-.63-1.53-1.22-2.24-1.89a24.82,24.82,0,0,1-2.08-2.15c-16.58-19.59-31.35-40.37-42.67-63.51-1.94-4-4.77-7.54-7.48-11.08s-5.65-6.63-8.46-9.89C101.75,540.06,96,544,90,547.3A26,26,0,0,1,70,549.78c6.7.32,12.65-1.45,17.66-6.06a39,39,0,0,0,10.71-16c.52-1.47-.29-3.93-1.31-5.34a275,275,0,0,1-31.29-55.24c-4-9.52-7.37-19.32-11-29A37.94,37.94,0,0,0,53,433.87c1.89,18,2.72,36,1,54-.43-7.52-.36-15.1-1.37-22.54Q48,431,42.5,396.86c-.42-2.69-2.47-5.26-4.17-7.59-6.44-8.88-13-17.62-19.57-26.44a15.52,15.52,0,0,0-2.15-2.77c-.85,18,1.86,35,13.4,49.63A59.48,59.48,0,0,1,17.6,390.11c-5.34-14.13-6.75-28.82-6.37-43.8a20,20,0,0,0-1.34-7.91C-.77,312.53-2.23,285.92,2.74,258.64,9.39,222.13,24.33,189,43.45,157.54c5.62-9.25,11.31-18.54,15.9-28.31,4.91-10.46,8-21.79,12.89-32.24,7.16-15.21,15.2-30,23-44.91,8.14-15.57,16.55-31,24.56-46.65,2.1-4.1,4.64-5.5,9.26-5.37,12.57.37,25.17.13,38.82.13C143.37,20.82,122.44,43.36,107,70.64c1.31-1.65,2.64-3.28,3.93-5s2.55-3.39,3.81-5.1c11.94-16.15,26.1-30.19,41.39-43.12C162.62,12,169.32,6.8,176,1.55a5.2,5.2,0,0,1,2.89-1.3c17.6-.08,35.19-.06,53.43-.06-8.46,30.16-1.23,59,6.55,88.22l-7.51-2.8-.77.63c2.08,4.2,4.16,8.4,6.29,12.68L227,95.78c-.42,1.19-.8,2.31-1.18,3.4l6.63,4.6-.42.73a9.65,9.65,0,0,1-1.69-.49,15.33,15.33,0,0,0-14-.44c-9.4,4-18.93,7.71-25.41,15.83a131.35,131.35,0,0,0-14.86,22.33c-10.55,21-19.69,42.62-24.67,65.67-2.81,13-4.39,26.31-6.52,39.48-.25,1.56-.41,3.13-.62,4.74a2.57,2.57,0,0,0,.83-.22c10-7.67,20.78-7.9,32.77-5.49,13.77,2.77,27.91,3.71,41.9,5.4,3.67.44,7.4,1.14,11.05.93,6.84-.4,12.11,2.42,17.13,6.72l-4.2-6,.94-.85,12.13,12A.94.94,0,0,1,257,264.61Zm168,471c4.1,1.88,2.33-2.45,3.47-3.6l2.77,3.32,1.15-.7-4.64-11.22-5.05,7.41a7.68,7.68,0,0,1-1.51-2c-1.52-4.58-2.89-9.21-4.39-13.81-.72-2.22-1.59-4.39-2.75-7.55-1.66,6.3,7.41,30.29,12.12,32.58C425.77,738.24,425.43,736.93,425.08,735.63ZM160.57,317.24c-.46.58-1.43,1.4-1.29,1.7,2.58,5.45,5.82,10.39,11.35,13.31.43.23,1.18-.16,1.78-.26,7.38,6,25.89,10.62,34.53,8.53-9.06.54-17.18-1.07-22.59-9.33-5-7.59-5.49-15.83-3.63-24.61A50.12,50.12,0,0,0,160.57,317.24Zm471.8,40.9c.51.92.78,2.19,1.56,2.68,3.26,2.05,6.65,3.9,10,5.76a19.73,19.73,0,0,0,3.1,1c-.82-8.31-1.59-16-2.39-24.12l-9.23,11.07c1.88-3.08,3.62-6.25,5.68-9.21a14.63,14.63,0,0,0,2.57-11.66c-1.64-8.55-3.11-17.14-4.85-25.68-1-4.78-2.34-9.49-3.52-14.23a2.21,2.21,0,0,0-.72,1.54c-1.48,15.23-3,30.46-4.38,45.7C629.7,346.81,629.53,352.69,632.37,358.14Zm8.14,59c.64-.85,1.69-1.63,1.84-2.56,1.45-8.91,2.75-17.85,4.11-26.88l-17.09-3.55c1.62,19.08-3.94,37.66-1.22,57.6,3.68-6.2,6.94-11.32,9.78-16.67,1.3-2.45,1.78-5.33,2.63-8ZM95.29,142.55c-4.25,7.86-8.63,15.66-12.73,23.6A362.7,362.7,0,0,0,57.75,227c-6.91,22.75-10.63,46.15-14.29,69.56-1.71,10.94-2.91,22-4.34,32.94l-.45,0q-1.1-8.7-2.18-17.41a237.85,237.85,0,0,0,3.37,44.08c2-18.54,3.14-37.11,5.67-55.49s6.13-36.9,9.83-55.23a256.89,256.89,0,0,1,17-53c7.46-16.92,15.8-33.45,23.7-50.06l-.93.33,5.1-7.71c18.47-27.79,38-54.73,62.51-77.65C176,44.9,190.06,33.62,209.69,33.42c-8.8-3.74-16.9,0-25.16,2.3,8.32-5.87,16.8-11.14,27.64-8.84,1.47-5-.78-8.5-5.58-8.73a35,35,0,0,0-7.08.44c-12.45,2-23.51,7.49-33.86,14.29a292.78,292.78,0,0,0-58.2,49.6C92.68,99,77.11,114.91,64,132.91c-4.11,5.65-8.08,11.4-12.11,17.11l.73.59C86,106.51,121.7,65,173.05,40.86c-59.92,63-109,133-139.54,215a4,4,0,0,0,1-1.36c14.22-31.77,30.1-62.7,47.37-92.9C85.73,154.9,90.79,148.89,95.29,142.55ZM407.8,38.84l-.9.79c16.37,20.44,30.32,42.21,38.16,67.45-13.33-17.4-29.86-30.94-48.49-42l-.7.73,69.61,92.49.23,0-23.31-40,.81-.47c5.1,8,10.34,15.82,15.28,23.87,14.15,23.05,27.57,46.58,42.44,69.15,14,21.22,28.92,41.86,44.41,62a544,544,0,0,0,61.94,68c5.13,4.75,10.78,8.94,16.19,13.39l.88-1.07c-1.84-1.52-3.82-2.89-5.49-4.57-13.37-13.41-27.22-26.4-39.87-40.47-14-15.54-27.31-31.67-36.6-50.8-9.47-19.5-20.21-38.4-29.78-57.86-13-26.39-25.47-53-38-79.62-13.2-28-30.15-53.13-54.91-72.33C415.82,44.49,411.77,41.72,407.8,38.84ZM307.15,22.5l-.88.81c1.16,1.73,2.24,3.52,3.5,5.17,6.57,8.64,13,17.42,19.81,25.83,17.32,21.28,34.91,42.34,52.25,63.6q22.69,27.83,45.08,55.91c9.94,12.44,19.68,25,29.5,37.56l1-.69c-16.95-25-33.65-50.22-49.2-76.12l1.48-1.07,49.17,62.3c-6.93-23.49-22-42-31.82-63.31q12.27,13.47,24.53,26.93a243.69,243.69,0,0,0-14.91-28Q424.1,111.49,410.5,92.25c-4-5.69-9.79-9.6-16.93-12,2.91,8.15,5.67,15.86,8.42,23.57l-.5.08L357.7,54c-.46.36-.92.72-1.37,1.09l42.21,62.53C369.89,84.08,338.57,53.24,307.15,22.5ZM107.86,378.38c0-2.11.13-4.23,0-6.34a487.86,487.86,0,0,1,3.24-95.27,303.42,303.42,0,0,1,13.77-60.86,297.31,297.31,0,0,1,34.87-69.32,247.07,247.07,0,0,1,37.63-43.92c2.58-2.37,5.4-4.49,8.1-6.73l-.77-1c-8.48,6.24-17.27,12.1-25.34,18.82s-15.54,14.42-23.27,21.68c9.82-24.12,28.45-40.65,48.82-55.79A12.33,12.33,0,0,0,201.18,81c-6.13,3.82-12.63,7.19-18.21,11.69-17,13.71-29.59,31-38.91,50.61-16.41,34.49-31.17,69.63-40.3,106.86-7.57,30.84-10.56,62-5.53,93.54a35.82,35.82,0,0,0,1.35,4.55c1.73-21.49-2.83-43,4-64C99.24,316,105.87,347.12,107.86,378.38ZM286.52,58.55l-.9.94,19.77,24.35c10.29,12.69,19.7,26.23,31,37.9,21,21.64,39.63,45.22,58.86,68.32,17,20.4,33.24,41.42,50,62,18.94,23.27,39.21,45.13,64.43,62,15.22,10.18,29.94,21.16,46.21,29.67,13.69,7.16,28,13.21,41.47,20.7,17.77,9.86,36.63,16.15,56.44,20,5.92,1.15,11.87,2.17,17.81,3.25a14.55,14.55,0,0,0-5.54-2.32c-16.33-4.48-32.78-8.6-48.94-13.63-6.41-2-12.19-6-18.26-9.14.19-.4.37-.8.56-1.21l14,3.1c.12-.42.23-.83.35-1.24a28.6,28.6,0,0,0-5-2.07c-9.54-2-17-8-24-14-13.87-12-27.67-24.2-40-37.68-26-28.4-48.22-59.81-70.1-91.43-1.22-1.74-2.52-3.43-3.78-5.14a5.89,5.89,0,0,0,1.07,3.64c9.79,14.89,19.28,30,29.49,44.6,12.73,18.21,26.19,35.93,42.08,51.54,15.75,15.45,30.64,31.86,48.54,45,0,0,0,.18,0,.27s-.25.21-.31.19c-3.58-1.73-7.11-3.59-10.75-5.19-30-13.21-57.16-30.92-82.76-51.27-23-18.31-42-40.61-60.57-63.06-23.2-28.05-44.78-57.44-67.09-86.24-10.54-13.6-20.56-27.68-31.89-40.59-13.41-15.27-27.93-29.57-42.09-44.17C293.61,64.35,290,61.56,286.52,58.55ZM108.66,190.28l-1.2-.44c-4,10.81-8.22,21.55-12,32.44-1.78,5.17-2.56,10.67-4.07,15.93-6.41,22.4-11.25,45.15-11.87,68.44-.44,16.55.5,33.17,1.59,49.72,1.79,27.16,4.66,54.25,12.88,80.38,3,9.37,7.12,18.37,10.73,27.54l1.25-.46a193.58,193.58,0,0,1-14.74-47.27c-2.87-15.46-5.07-41.36-2.93-49.32,1.55,7.05,2.88,14,4.62,20.86s3.85,13.67,5.91,20.46c2,6.62,4.18,13.2,6.27,19.8-7.59-29.49-13.34-59.32-18.7-89.24.73.17,1,.45,1.06.77,2.32,10.45,4.51,20.94,7,31.36,6.11,25.93,17.59,49.47,32.55,71.34,3.84,5.62,8.81,10.46,13.26,15.66l.92-.8c-1.51-1.75-3-3.53-4.53-5.26a131.92,131.92,0,0,1-19-28.56,209.85,209.85,0,0,1-18.35-56.37c-2.83-15.58-6-31.19-7.37-46.93-3.35-39,2.15-77.2,12.38-114.82C105.66,200.41,107.19,195.36,108.66,190.28Zm404.65-55.9.56-.51-10.08-28.3,1.42-.72a42.44,42.44,0,0,1,4.36,4.86c18.75,28.41,28.94,60.41,38.87,92.56a6.11,6.11,0,0,0-.13-2.14c-3.69-12.92-6.81-26-11.25-38.71-6-17.14-12.34-34.25-19.87-50.77-7.79-17.08-17.13-33.46-25.94-50.07-1.52-2.85-3.16-6-7.5-5.56-1,.1-2.3-1.35-3.27-2.28a43.72,43.72,0,0,1-3-3.61l-1.09.76,16.05,35-.85.44-8.74-4.86,2.53,5.52-1,.62L477,77.7c.9,2.87,1.61,5.16,2.33,7.45-6.5-3.76-10.43-9.57-14.6-16.27,6.8,25.26,16.81,48.11,28.87,71.06-2.49-9.35-4.74-17.84-7-26.34l1.55-.68c2.64,10,10.74,15.58,17.7,22.32q-2.92-7.5-5.83-15l.51-.23ZM47.73,168.19A8.18,8.18,0,0,0,47,169C28.23,196,13.48,224.76,6.07,257,.35,281.8.2,306.41,9.09,330.65a20.18,20.18,0,0,0,1.05,2.13c1.56-14.1,2.69-28.15,4.75-42.07,3.86-26.12,11.84-51.25,19.36-76.47C38.8,199,43.2,183.67,47.73,168.19ZM650,329.18c1-2.29,2.27-5.22,3.43-8.2,6.5-16.75,5.61-34.07,3.42-51.34-3.74-29.42-15.91-55.63-31.59-80.41a9.86,9.86,0,0,0-1.64-1.44c6.69,22.66,11,45,11.65,67.91.15,5-.21,10.07.86,14.84C640.47,290.22,645.33,309.81,650,329.18ZM220.92,42.9a9.75,9.75,0,0,0-1.52-.75c-6.47-2-12.72-1.23-19,1-16.47,5.91-29.31,16.93-41,29.34-21.61,23-40.18,48.26-57,74.88C90.69,165.8,80.88,185,74.76,206c-.19.65-.26,1.34-.39,2a130.31,130.31,0,0,0,6.71-11.22,739,739,0,0,1,42.15-66.24c10.35-14.66,19.93-29.92,32.51-42.88,8.93-9.2,18.64-17.49,31.26-21.1,7.19-2,14.66-3.1,21.91-4.58-11.74-3.81-23.35-2.25-34.8,2.76a28.53,28.53,0,0,1,4.44-4.13C191.2,51.47,203.09,40.41,220.92,42.9ZM452.7,627.19c1.52.07,1.83.18,2,.08a116.92,116.92,0,0,0,27.58-25,3.7,3.7,0,0,0,.4-3c-3.87-11.73-7.85-23.42-11.6-34.52l-5.6,12a3.84,3.84,0,0,1,.13-3.08c3.88-8.75,6.3-17.71,5.2-27.47-.5-4.47-.08-9-.08-14.18-4.05,4.54-6.76,9-7.59,14.47-1.59,10.6-3.5,21.16-4.84,31.79C456.24,594.54,454.56,610.76,452.7,627.19Zm-321.44-118,.73-.65c-.82-.86-1.6-1.75-2.44-2.57a185.61,185.61,0,0,1-38.26-52.31,270.26,270.26,0,0,1-20.12-57c-5.78-24.85-8.74-50-5.54-75.43,2.56-20.3,6-40.51,9.46-60.69,1.21-7.08,2.73-14.34,5.63-20.85,10.55-23.66,21.65-47.09,32.78-70.5,3.47-7.31,7.69-14.26,11.57-21.37a7,7,0,0,0-2.83,3c-9.19,17-18.47,33.95-27.5,51A326.8,326.8,0,0,0,69.92,263.5C63.67,285,61,307,60.89,329.3a296.39,296.39,0,0,0,19.61,108,173.83,173.83,0,0,0,38.08,59.84C122.65,501.29,127,505.18,131.26,509.21ZM35.58,272.35c-.8,1.77-1.69,3.52-2.4,5.33A259.67,259.67,0,0,0,17.56,342.2a12,12,0,0,0,.8,5.45c5.43,13.9,13.49,26.24,22.81,38.52C32.7,348.19,30.42,310.52,35.58,272.35ZM338.51,148.67l1-.79q-5.88-6.65-11.77-13.3l.2-.17,23.78,19.68.92-1-14.49-15.39-.42.34,6.95,4.39c-1.37-3.41-2.11-7.19-4.17-10-10.09-13.8-20.9-27-34.47-37.63-7.51-5.9-14.75-12.15-22.11-18.24C296.71,104.79,315.71,128.19,338.51,148.67ZM294.4,35.21l-.55.6c12.39,12.67,24.63,25.47,37.19,38,16.75,16.67,31.63,34.88,45.51,54,11.44,15.7,22.54,31.65,34.38,47,10.34,13.43,21.56,26.17,32.25,39.32,5.84,7.19,11.4,14.59,17.09,21.9a8.25,8.25,0,0,0-1.75-4q-13.36-18.5-26.74-37c-6.34-8.8-12.69-17.59-18.89-26.48C395.66,143.8,380,117.94,357.75,97c-15.53-14.62-30.32-30-45.53-45C306.41,46.29,300.35,40.81,294.4,35.21ZM602.74,154l-.85.35q15.17,52.75,30.32,105.49l1.15-.28c0-1.23,0-2.46,0-3.69-.7-20.78-4.39-41.07-9.33-61.23C620.23,179.19,611.57,166.6,602.74,154ZM524.82,372.1l-1.06.16c.12,1.59.19,3.19.39,4.78,2,16,4.4,31.87,5.88,47.88,4.71,50.91-4,99.42-27,145.19-2.32,4.6-5.25,8.9-7.9,13.34l-1.19-.73a13.79,13.79,0,0,0,.92-1.38c2.06-3.94,5.7-7.85,5.8-11.85.17-7.53-1.71-15.12-2.74-22.68A69.15,69.15,0,0,0,492,588.32c2.87-3.58,6.32-7.06,8.81-11.12C521.16,544,530.7,507.56,533,469c1.43-23.77-.18-47.4-3.66-70.91C528.06,389.38,526.34,380.75,524.82,372.1Zm102.43-42.79h1.94c.19-5.16,1.15-10.44.42-15.47-1.61-11.08-4.3-22-6.14-33-4-23.93-9.57-47.4-18.68-69.94-.72-1.79-1.59-3.52-2.78-6.15C610.57,246.94,618.91,288.12,627.25,329.31Zm9.42-130c-1.73-12.5-42.59-93-49.89-96.57,2.76,13.48,6.09,26.58,13.54,38.24,4.76,7.45,9.65,14.84,14.32,22.36C622.11,175.37,629.45,187.49,636.67,199.3ZM554.26,402.67c-.16,32-4.78,63.12-11.82,94s-16.89,60.53-34.39,87.29a51,51,0,0,0,5.12-5.94c1.63-2.2,3.25-4.42,4.69-6.74,12.38-19.91,20-41.76,26.08-64.22A309.62,309.62,0,0,0,555.08,419C555,413.54,554.54,408.11,554.26,402.67ZM224.55,14.46c.91-4.11.55-5.3-2.83-7.2a23,23,0,0,0-15.84-2.95C177.56,9.59,153.56,22.22,135,44.77c-15.31,18.57-31.18,36.67-46.8,55q-4.82,5.67-9.6,11.37l.57.46,25.3-28c12.37-13.69,24.6-27.51,37.18-41,9.22-9.9,19.53-18.72,31.65-24.85a116.68,116.68,0,0,1,21.93-8.14c7.2-2,13.67-.12,18.66,6.22,2.47,3.13,6,5.41,9.08,8.07l.77-.72c-1.92-6.48-8.56-9.34-12.22-14.49l.57-.88Zm206.51,291.2-.22.85a32.28,32.28,0,0,1,4.69,1.93c.76.45,1.74,1.73,1.58,2.37a91.68,91.68,0,0,1-3.84,12.43c-1.3,3.1-3.95,5.62-7.57,5.08a9.62,9.62,0,0,1-8-6.58,33.52,33.52,0,0,1-1-5.5c-.15-1-.24-1.93-.38-3.08l-5.62.42,4.54-4.38-1-1.23c-2.13,1.25-5.49,2-6.15,3.83a16.31,16.31,0,0,0,2.69,16.58c4,5,9.36,8.15,15.75,7.8,8-.42,15.14-7.32,17.05-15.2,1.57-6.53-4.44-14.91-11.2-15.59A4.56,4.56,0,0,0,431.06,305.66ZM215,312.5c-1.27,3.58-2.3,6.9-3.63,10.09s-3.17,5.93-7,5.85-6.49-2.5-8.1-5.79a15.22,15.22,0,0,1-.08-14.5c-2.94.89-5.35,1.13-7.16,2.29-4.12,2.63-3.51,6.87-2.62,10.82a19.3,19.3,0,0,0,22.45,14.55c9.57-1.71,15.61-11.44,14-22.92ZM582.74,157l1.16-.52C572.85,119.55,560.78,83,540,50Q561.39,103.53,582.74,157ZM426.33,340.75c15.49,1.76,36-10.35,41.38-24.14l-18.38-10.55c1.65,8.91,1.36,16.46-2.76,23.54C442.27,337,435.43,339.86,426.33,340.75ZM353.42,214.11c-32.73-25.81-59.18-57.33-82.52-91.28C277.31,145.71,330.37,204.8,353.42,214.11ZM622.56,446.49l.22-.07c-3.11-5.36-5.69-11.12-9.43-16-10.36-13.55-20.66-27.22-32-40-16.82-18.91-34.47-37.07-51.81-55.53-2.07-2.21-4.36-4.23-6.54-6.34l-.75.66c4.3,5.39,8.3,11.06,13,16.11,10.67,11.53,21.83,22.61,32.51,34.14,11.5,12.44,23.06,24.87,33.87,37.91C609.23,426.57,615.62,436.76,622.56,446.49ZM641,424.84c-4.06,5.86-8.24,11.85-12.36,17.89a4,4,0,0,0-.48,2.14c.11,6,.51,12,.36,18-.15,5.8-.85,11.58-1.36,18C637.46,463.15,638.75,443.78,641,424.84Zm-168.9-159-.67.77c33.15,29.58,65.54,60.14,105.4,81a18.64,18.64,0,0,0-3.89-3.43c-10-6.73-20.61-12.77-30-20.28-19.2-15.32-37.74-31.47-56.63-47.18C481.74,272.91,476.87,269.48,472.13,265.87ZM72.6,440c3,22,26.45,74.27,39,87.16C96.17,499.23,85,469.37,72.6,440ZM598.84,237.75a15.91,15.91,0,0,0,.22,2.5c3.12,12.43,6.88,24.74,9.29,37.3,4,20.77,7.09,41.72,10.64,62.58.5,2.95,1.38,5.83,2.09,8.75l1.08-.28C619.13,310.68,611.76,273.66,598.84,237.75ZM140.17,221.53l-.34-.4c-4.14,13.65-8.29,27.29-12.7,41.77,4.17-2.71,7.52-4.6,10.49-7a6.91,6.91,0,0,0,2.44-4.59C140.27,241.41,140.17,231.47,140.17,221.53Zm9-45.39c-18.94,37.72-28.1,78-32,119.68C124.05,254.93,131.81,214.28,149.14,176.14Zm126.75,557,1.36-.47c-2.45-7.56-2.32-16.13-9.1-22.5-6.33,7-7.61,16.11-11.79,24.25-1.13-3.16.45-7.27-3.81-9.36-2.13,4.38-4.21,8.65-6.28,12.93l1.39.85,4.73-5.72c.81,3,1.6,5.89,2.4,8.81l1.08.17,11.4-28.19,1.36.08Zm354.87-422c1.23-20.85,2.52-40.71-9.38-57C624.32,272,627.46,291.08,630.76,311.16ZM177.55,128.28c-18.09,23.65-29.43,59.11-30.81,79.21,3.67-12.23,7.08-26.72,12.42-40.46S171.76,140.29,177.55,128.28ZM450.24,721.05l5.72-3.62-.28-.59-3.1.28V705.35l-7.75,6.24c1-7.94,2-15.36,2.95-22.78l-1-.13c-1.94,10.44-4.8,20.74-4.7,31.46l.9.15c.81-1.69,1.62-3.39,3-6.17ZM233,682.8c6.16,8.05,14.95,12.46,23.15,17.71s16.69,9.55,27.41,11.79c-2.08-1.73-3.34-3.31-5-4-4-1.78-8.41-2.62-12.1-4.8-10.4-6.13-20.51-12.74-30.74-19.15C234.9,683.75,234,683.3,233,682.8Zm301.45-89.28c8.13-13.71,22.36-70.3,20.74-82.79C549.91,538.73,544.08,566.6,534.48,593.52ZM66.79,121.21C79.45,104.94,83,84.55,92.73,67l-1.66-.75Q78.92,93.71,66.79,121.21ZM515.26,355.49l11.07,66.29C524.85,399.32,521.54,377.16,515.26,355.49Zm-260.85,393c-14.33-9-26.85-19.93-36.51-34C226.71,729.44,238.06,741.64,254.41,748.46ZM66.1,170.11l1.3.66,23.92-52.92-1.39-.62Q78,143.66,66.1,170.11Zm26,52.06c-7,13.2-14.07,26.39-16,41.49Q84.07,242.92,92.07,222.17Zm526.29,75.05-.86.19,8.16,41,1.65-.24a61.87,61.87,0,0,0-.66-7.86c-.57-2.75-1.91-5.33-2.57-8.07C622.08,313.91,620.25,305.56,618.36,297.22ZM543.94,374.8c1.64,20.6,3.3,41.27,4.72,59.13A280.59,280.59,0,0,0,543.94,374.8Zm80.24,34.9,1-.13c-.49-8.29-.92-16.59-1.53-24.87-.08-1-1.09-2-1.67-3l-.79.38Q622.72,395.89,624.18,409.7Zm-397.54,311c1.67,0,4.19.66,4.82-.15a7.39,7.39,0,0,0,1.25-5.6c-.59-2.42-.19-6-3.52-6.84C226.06,712,233.22,717.16,226.64,720.72ZM183.92,283.37l40.82,2.5C211.81,281.11,197,284.59,183.92,283.37Zm54.21,437.41c-1-4.69-1.9-9.25-2.83-13.8l-1.05.25C233.45,714,235.08,720.11,238.13,720.78ZM424.84,318.12l3.6-5.7c-1.25-.49-2.93-1.73-3.65-1.32C422.36,312.52,422.29,314.76,424.84,318.12ZM558.3,354.64l-1.08.89q4.77,5.84,9.53,11.69l1-.85ZM213.24,306.82c1.11,3.84,3.22,4.31,8,1.6ZM469.65,320.7c-3.7,4-7.41,8.05-11.79,12.8C463.45,329.85,467.37,326,469.65,320.7Zm-260.46-8.8H204l1.66,5.14,1.08-.32C207.38,315.52,208,314.32,209.19,311.9Zm-7.63.62-1.89,1-2.61,2.8c.81.55,1.8,1.69,2.4,1.51a5.14,5.14,0,0,0,2.93-2.28C202.74,314.83,201.88,313.54,201.56,312.52Zm-23.91,27.29-.34,1.16,11.29,1.43.18-1.17Z"/><path d="M401,767.44c4.17-3.09,8.43-6,14.41-6.68-.34,2.47-.63,4.57-.93,6.68Z"/><path d="M440.71,767.44l4.85-5.75,1.17.56,1.47,5.19Z"/><path d="M389.12,519.81c-2,1.76-3.07,3.07-4.44,3.82-10.78,5.92-18.76,15.16-27.66,23.3-10.7,9.79-22.61,16.28-37.7,15a58.53,58.53,0,0,0-9,0c-11.8.87-21.77-3.26-30.44-11-6.9-6.12-13.59-12.49-20.58-18.5-3.85-3.31-8.21-6-12.2-9.2-1.2-1-1.9-2.55-2.84-3.85,1.68-.43,3.52-1.52,5-1.17,5.16,1.21,8.87-.85,12.4-4.23,7.83-7.49,15.6-15.07,23.75-22.21,7.13-6.23,15.22-8.95,24.43-4.16,3.94,2.05,7.93,1,11.56-.64,9.7-4.4,17.92-.93,25.31,4.92,6.72,5.32,12.83,11.43,19.11,17.31,5.36,5,10.88,9.54,18.83,9.35C385.83,518.66,387,519.25,389.12,519.81Zm-72.74,10.86.12.1L307,528.46c-2-5.38-8.29-3.3-12.79-5-6.14-2.28-9.57,1.58-13.2,5.43l4.21-6.49c-4,1.34-8.07.84-7.93,6l-1-3c-3.71.84-7.21,1.58-10.69,2.44-1.28.32-3.47.74-3.56,1.37a5.4,5.4,0,0,0,1.22,4.19c5.14,4.89,10.35,9.73,15.83,14.23a36,36,0,0,0,25.62,8.37c9.83-.49,19.71.07,29.55-.22a24.25,24.25,0,0,0,9.29-2.29c11.35-5.27,19.49-14.51,27.93-23.33.3-.31.31-.88.64-1.9-4.77-.43-8.77-3.58-14.05-2.75-12.09-5.85-24.61.6-37.46-.06v9.39C319.63,532.19,319.74,529.42,316.38,530.67ZM376.46,520l.49-.91c-7.85-2.6-12.74-8.91-18.47-14.16-6.25-5.73-12.37-11.61-20.34-15.06-4.8-2.08-9.49-2.64-15,.39,10-.14,18.32,2.25,25.38,9.55l-5,6.37a1.57,1.57,0,0,1,.29-1.82c3.49-4.59,3.23-5.47-1.84-8.22-7.62-4.14-15.78-4.75-24.25-4.35a25,25,0,0,1-9.67-1.58,12.78,12.78,0,0,0-9.75-.12,21.63,21.63,0,0,0-2.94,1.71l-.48-.67c.58-.63,1.16-1.27,1.75-1.9-16,6.07-25.84,19.53-37.77,30.5a19.23,19.23,0,0,0,4.71-3.21c3.92-3.3,7.37-7.62,13.29-6.84a8,8,0,0,1,4.28,2.14c.6.59.11,2.28.11,3.45l7.45-3.06c-2.16-2.87-4-5.37-5.9-7.87l.85-.71,6.95,7.93,1.19-1-7-10,4.61-2.62c.15.27.3.54.46.8l-3.16,2.2c2.19,3.27,4.19,6.39,6.38,9.37a2.36,2.36,0,0,0,2.27.43c4.1-2.31,8.22-.8,12.39-.47,4.43.35,9.24,1.14,13.28-.16,4.75-1.53,11.25-2.44,11.18-10.09,1,3.27,1.92,6.26,2.83,9.26-.27.64.29.87.88,1,7,1.66,14.26,2.64,20.94,5.15,5.49,2.06,11.13,2.73,16.68,4.09A27.37,27.37,0,0,0,376.46,520Zm-79.22-3.75c6.64,6,32.18,6.42,38.37.75-3.6-3.93-8.19-2.68-12.55-2.52-4,.15-8.05.43-12.07.38C306.46,514.82,301.84,513.41,297.24,516.26Z"/><path d="M404.55,229.46c-31.15-11.2-57.58-29.41-79.74-54C348.15,198.3,374.06,217.28,404.55,229.46Z"/><path d="M304.77,452.87a12.56,12.56,0,0,1-2.23-1.38,14.07,14.07,0,0,0-12.94-3.94,3.64,3.64,0,0,1-3-1.46,3,3,0,0,1,.53-2.9c1.56-1.25,3.43-2.78,5.26-2.9C298.26,439.9,304.86,446.76,304.77,452.87Z"/><path d="M326.81,452.52c-.45-5.22,2.34-9.34,7.38-11.33a8.22,8.22,0,0,1,9.67,2.62c.68.92.6,2.4.86,3.63-1.22.24-2.63,1-3.63.64-4.88-1.8-8.41-1.21-12,2.4C328.38,451.14,327.67,451.74,326.81,452.52Z"/><path d="M257,264.61a.94.94,0,0,0-.21-.45l-5.19-9.44c4.45,1.8,14.28,18,14.88,26.18Z"/><path d="M345.56,453.7A20.82,20.82,0,0,0,355.38,439C357,445.51,352.69,452,345.56,453.7Z"/><path d="M276,439.92l7.31,12.95C278.49,452.13,274.49,445.2,276,439.92Z"/><path d="M532.93,10.37,524,.92c6.5-.24,5.72,6.54,9.61,8.81Z"/><path d="M283.18,315l-6.82-13.58,1.16-.56,6.72,13.76Z"/><path d="M127.42,524.15l-6.74-13.06,1-.5,6.62,13.12Z"/><path d="M481.93,725.77c-6.3,9.58-14.3,17.67-22.48,25.6l-1-.87,22-26Z"/><path d="M473.67,714.17c2.62,4.88.32,8.24-3.24,11.5-3.07,2.82-5.77,6.05-9.26,8.62,1.74-3.07,3.55-6.1,5.19-9.22,1.38-2.64,2.62-5.35,3.81-8.08.73-1.64,1.22-3.4,3.63-2.68Z"/><path d="M483.94,155.46,542.14,262C532.31,253.33,484.44,165.33,483.94,155.46Z"/><path d="M148.44,140.08q4.73-7.25,9.47-14.48l.73.49-9.2,14.64Z"/><path d="M377.36,124.89l30.73,41-1,.77C397.79,152.21,384.45,140.79,377.36,124.89Z"/><path d="M640.56,417.05q-2.28-14.1-4.55-28.22c2,9.34,5.4,18.46,4.51,28.29Z"/><path d="M171,331a24.92,24.92,0,0,1-10.58-14l12.16-3.52.27.26-9.55,4.92Z"/><path d="M316.38,530.67v12.75l-1.77,0c0-3.9-.05-7.8.08-11.7,0-.35,1.17-.66,1.8-1Z"/><path d="M280.46,501.91c.62,2.62,1.1,4.63,1.6,6.73l-5.16-3.86C278.23,503.72,279.53,502.67,280.46,501.91Z"/><path d="M489.32,445.62c-.26,0-.38.25-.53.41L477.2,458.18a1.57,1.57,0,0,0-.47,1.15c0,2.2-.11,4.4-.15,6.6a1.31,1.31,0,0,1-.4,1c-3.44,3.58-6.89,7.16-10.3,10.78a2.92,2.92,0,0,1-2.14,1c-2,.09-4,.23-6,.35-1.37.08-2.73.16-4.1.22a1.58,1.58,0,0,0-1.13.54q-5.94,6.22-11.9,12.42c-.26.27-.53.53-.78.81a1.2,1.2,0,0,1-1,.41c-2.15,0-4.29.05-6.44.06a1.19,1.19,0,0,0-1,.39q-3.07,3.22-6.17,6.44a.91.91,0,0,0-.24.37c.08.22.17.46.25.72a3.69,3.69,0,0,1-1.7,4.35,3.44,3.44,0,0,1-4.38-.61,3.55,3.55,0,0,1,0-4.53,3.31,3.31,0,0,1,3.31-1.34,5.06,5.06,0,0,1,1.07.32c.65.27.65.26,1.19-.29l4.34-4.53c.6-.61,1.21-1.22,1.79-1.85a1.2,1.2,0,0,1,1-.43c2.14,0,4.3-.17,6.44-.09a1.48,1.48,0,0,0,1.19-.52l12.46-13a1.78,1.78,0,0,1,1.31-.62c3.47-.13,6.95-.58,10.42-.64A1.68,1.68,0,0,0,465,477q5-5.17,10-10.33a1.68,1.68,0,0,0,.53-1.21c.06-2.13.16-4.27.21-6.4a2.17,2.17,0,0,1,.7-1.56l30.45-31.6a1.34,1.34,0,0,0,.44-1c0-1.88,0-3.76,0-5.65q0-1.68,0-3.36a1.26,1.26,0,0,0-.41-1c-3-2.87-6-5.76-9-8.64a.81.81,0,0,0-.36-.25c-.52.31-18,18.46-19,19.67.11.31.25.63.35,1a3.77,3.77,0,0,1-3.21,4.74,3.13,3.13,0,0,1-3.25-1.77,3.22,3.22,0,0,1,.21-3.58,3.5,3.5,0,0,1,3.5-1.57,6.88,6.88,0,0,1,1.6.5q9.87-10.21,19.64-20.47c.23,0,.32.12.42.23q5.08,5,10.27,9.84a1,1,0,0,1,.39.85c-.16,3.23-.05,6.46-.15,9.69a1.76,1.76,0,0,1-.53,1.28q-8.32,8.61-16.62,17.25a1.77,1.77,0,0,0-.58,1.32c0,1.84,0,3.68-.05,5.52,0,2.36-.09,4.72-.11,7.07a1.07,1.07,0,0,1-.41.76l-3.5,3.6Q475,473.76,463.69,485.8c-4.65,4.93-9.42,9.75-14.13,14.63-1.12,1.15-1.11,1.17-2.71,1.25s-3.13.16-4.67.23c-.15.28,0,.44.05.62a3.88,3.88,0,0,1-2,4.13,3.33,3.33,0,0,1-4.07-.45,3.44,3.44,0,0,1-.4-4.09,3.61,3.61,0,0,1,5-1.51,2.61,2.61,0,0,0,1.67.36c1.71-.18,3.41-.33,5.11-.37a1.44,1.44,0,0,0,1.07-.51c2.23-2.34,4.47-4.66,6.71-7q16.71-17.46,33.43-34.91a2,2,0,0,0,.62-1.51c0-2.87.1-5.75.14-8.62,0-.65,0-1.3-.05-1.95C489.45,445.94,489.49,445.75,489.32,445.62Zm-65.69,58.81a2.54,2.54,0,0,0,.09-3.58,2.6,2.6,0,0,0-3.5,3.83A2.52,2.52,0,0,0,423.63,504.43Zm13.46-2.38a2.4,2.4,0,0,0-.09,3.39,2.52,2.52,0,0,0,3.47-.17,2.41,2.41,0,0,0,0-3.44A2.32,2.32,0,0,0,437.09,502.05Zm40.24-75.92a2.47,2.47,0,0,0-3.44,3.53,2.27,2.27,0,0,0,3.35-.16A2.34,2.34,0,0,0,477.33,426.13Z"/><path d="M299.28,316.79a1,1,0,0,1,.36-.43c.28-.22.54-.26.77,0s.28.3.42.46q9.12,9.93,18.23,19.87a2.09,2.09,0,0,0,1.64.7c4.69.1,9.39,0,14.07.16a2.53,2.53,0,0,0,2-.77c6.9-6.43,13.91-12.74,20.89-19.08a9.53,9.53,0,0,0,.92-.87,1.47,1.47,0,0,1,1.22-.53c4.76,0,9.5,0,14.24.16a2,2,0,0,0,1.53-.59q17-15.7,34.15-31.24,16.82-15.28,33.55-30.64a3.13,3.13,0,0,0,.65-.66,2.69,2.69,0,0,0-.27-.9,4.56,4.56,0,0,1,5.05-5.77,3.48,3.48,0,0,1,3,2.56,4.06,4.06,0,0,1-.91,4,4.25,4.25,0,0,1-5,1.34,1.28,1.28,0,0,0-1.56.37q-13,11.9-26,23.77-20.89,19.08-41.82,38.12a1.92,1.92,0,0,0-.67,1.35q-.5,5.71-1,11.45c-.08.88-.2,1.77-.24,2.65a1.51,1.51,0,0,1-.59,1.12l-6.19,5.62q-7.86,7.17-15.74,14.33a2.22,2.22,0,0,0-.81,1.63c-.18,3.06-.37,6.12-.6,9.19-.11,1.55-.3,3.11-.45,4.67,0,.27,0,.54-.07.81a1.94,1.94,0,0,0,.55,1.63q9.14,10.17,18.43,20.21c.14.14.32.27.32.54a2.29,2.29,0,0,1-.82.74L334.05,355l8.7-8.05a1.85,1.85,0,0,0-.45-.78c-1.25-2-.71-4.35,1.4-5.94a4.1,4.1,0,0,1,5.69.69,4,4,0,0,1,.05,4.86,4.43,4.43,0,0,1-4.81,2,1.3,1.3,0,0,0-1.43.4c-2.27,2.11-4.57,4.18-6.85,6.27a2.09,2.09,0,0,0-.52.55c.35.75,12.24,13.71,12.9,14.06.15-.09.13-.24.14-.37.12-3.22.53-6.44.76-9.67.12-1.55.22-3.11.31-4.67a1.41,1.41,0,0,1,.52-1.06l22.15-20.34a1.61,1.61,0,0,0,.6-1.11c.37-4.09.76-8.17,1.13-12.26a5.67,5.67,0,0,0,0-1.84c-1,0-2.07-.07-3.12-.07-3.4,0-6.81.09-10.2,0a3.61,3.61,0,0,0-2.76,1.08c-7.1,6.54-14.25,13-21.37,19.55a1.62,1.62,0,0,1-1.25.49c-5.09-.1-10.2.09-15.29,0a2.34,2.34,0,0,1-1.82-.83c-6.25-6.74-12.44-13.55-18.64-20.34A2.28,2.28,0,0,1,299.28,316.79Zm48.55,28.93a2.92,2.92,0,0,0,.32-4.19,3,3,0,0,0-4.16.05,3,3,0,0,0-.39,4.19A3,3,0,0,0,347.83,345.72Zm98-96.94a2.92,2.92,0,0,0-.46,4.12,3.05,3.05,0,0,0,4.12,0,2.77,2.77,0,1,0-3.66-4.13Z"/><path d="M493.11,400.36c.14.5.28.89.37,1.3a4.4,4.4,0,0,1-2.54,5,3.86,3.86,0,0,1-5.31-2.42,4.57,4.57,0,0,1,3.23-5.23,3.94,3.94,0,0,1,2.65.24l.69.34,22.19-21.19c0-.28-.18-.4-.33-.55-3.3-3.48-6.61-6.94-9.91-10.42a1.28,1.28,0,0,0-1-.4c-2.2,0-4.41.09-6.62.15-.93,0-1.87.08-2.81.06a2.1,2.1,0,0,0-1.58.68q-15.23,14.56-30.48,29.1c-1.93,1.84-3.86,3.68-5.78,5.55a1.78,1.78,0,0,1-1.28.58c-2.49.06-5,.17-7.46.22a2.61,2.61,0,0,0-1.85.8q-5.78,5.5-11.51,11a1.93,1.93,0,0,0-.65,1.34c-.25,4.08-.55,8.15-.8,12.22a1.63,1.63,0,0,1-.58,1.2c-4.9,4.67-9.79,9.36-14.71,14a2.28,2.28,0,0,0-.8,1.81c0,2.39-.09,4.79-.13,7.19,0,.23,0,.45,0,.68a1.32,1.32,0,0,1-.52,1.06c-2.39,2.26-4.75,4.53-7.12,6.8l-.34.36c.14.38.3.73.42,1.1a4.29,4.29,0,0,1-1.67,4.78c-2.46,1.74-5.48.74-6.13-2A4.44,4.44,0,0,1,406,460.7a12.13,12.13,0,0,1,1.16.41,2.65,2.65,0,0,0,.69-.58c2.2-2.11,4.38-4.23,6.58-6.33A1.54,1.54,0,0,0,415,453c0-2.64.05-5.29.05-7.94a1.53,1.53,0,0,1,.55-1.21c5-4.71,9.92-9.45,14.89-14.16a2,2,0,0,0,.7-1.47c.2-4,.49-8,.8-12a2,2,0,0,1,.69-1.41q6.27-6,12.5-11.95a2.11,2.11,0,0,1,1.51-.67c2.49-.07,5-.2,7.46-.18a1.62,1.62,0,0,0,1.23-.5q7.13-6.86,14.27-13.67l.31-.33c-.06-.28-.27-.19-.43-.18-3.84.32-7.66.3-11.49.33-1.86,0-1.86,0-3.25,1.36l-42.7,40.77c-1.46,1.39-2.89,2.8-4.35,4.18a1.69,1.69,0,0,0-.6,1.21c-.16,2.28-.34,4.55-.53,6.83a1.07,1.07,0,0,0,.29.88c1.28,1.36.8,3.64-.32,4.95a4.08,4.08,0,0,1-4.68,1.16,3.46,3.46,0,0,1-2.21-3.42,4.29,4.29,0,0,1,2.46-3.74,3.62,3.62,0,0,1,2.53-.35c.24.05.45.2.72.12a1.41,1.41,0,0,0,.13-.75c.13-1.67.31-3.34.34-5a4,4,0,0,1,1.44-3q12-11.4,24-22.89,11.19-10.69,22.35-21.41c.51-.49,1-1,1.52-1.51a1.56,1.56,0,0,1,1.23-.54c2.35,0,4.71-.13,7.07-.15s5-.26,7.44-.08a.75.75,0,0,0,.63-.24l.92-.87,18.26-17.42c.38-.37.79-.71,1.15-1.09a1.69,1.69,0,0,1,1.31-.53c3.45-.1,6.9-.23,10.34-.25a1.62,1.62,0,0,1,1.3.53q5.36,5.67,10.75,11.31l.58.61Zm-90.29,62.3a2.71,2.71,0,1,0,4-.17A2.78,2.78,0,0,0,402.82,462.66ZM491.62,401a2.81,2.81,0,0,0-4,0,2.76,2.76,0,0,0-.2,3.94,2.73,2.73,0,0,0,3.94,0A2.81,2.81,0,0,0,491.62,401Zm-85.9,42.43a2.59,2.59,0,0,0-3.78,0,2.86,2.86,0,0,0-.36,4,3,3,0,0,0,4-.13A2.72,2.72,0,0,0,405.72,443.41Z"/><path d="M446.07,453.35l-52,48.55a4.83,4.83,0,0,0,.37,1.09,4.08,4.08,0,0,1-2,5,3.85,3.85,0,0,1-3,.41,4.11,4.11,0,1,1,2.74-7.71,1.38,1.38,0,0,0,1.83-.37q23.66-22,47.22-44.11l3.24-3.07c.73-.69.62-.66.31-1.37a4.11,4.11,0,0,1,2-5.33,3.81,3.81,0,0,1,4.22.58,4.41,4.41,0,0,1,1.26,1.86,4,4,0,0,1-4.25,5.14A5.76,5.76,0,0,1,446.07,453.35Zm-57.69,53.07a2.95,2.95,0,1,0,.21-4.13A2.87,2.87,0,0,0,388.38,506.42Zm62.18-58.26a2.77,2.77,0,0,0-3.81-.29,3,3,0,0,0-.33,4.1,2.69,2.69,0,0,0,3.92,0A2.64,2.64,0,0,0,450.56,448.16Z"/><path d="M186.81,248.48a3.09,3.09,0,0,1-1.36,0l.41-57.14a4.93,4.93,0,0,1-3.55-6.34,4.4,4.4,0,0,1,4.92-3.39A4.72,4.72,0,0,1,191.1,186c.24,2.5-1,4.34-3.82,5.32-.08,3.74-.09,7.54-.13,11.33s-.08,7.61-.11,11.41-.06,7.67-.08,11.51-.05,7.61-.07,11.41S186.83,244.6,186.81,248.48Zm-3.39-62a3.14,3.14,0,1,0,3.13-3.45A3.28,3.28,0,0,0,183.42,186.5Z"/><path d="M186.33,407.43c2.86,1.34,4.15,3.41,3.7,5.83a4.78,4.78,0,0,1-4.59,4,4.48,4.48,0,0,1-4.29-4,5.42,5.42,0,0,1,.78-3.8,4.93,4.93,0,0,1,3-2l.3-57.14a2.25,2.25,0,0,1,1.31,0Q186.35,378.94,186.33,407.43Zm2.42,5a3.41,3.41,0,0,0-3.18-3.49,3.45,3.45,0,1,0,3.18,3.49Z"/></g></g></svg>